HIERARCHY
ROOT Hips
{
	OFFSET -3.958830 18.904000 13.208200
	CHANNELS 6 Xposition Yposition Zposition Zrotation Yrotation Xrotation 
	JOINT LHipJoint
	{
		OFFSET 0.000000 0.000000 0.000000
		CHANNELS 3 Zrotation Yrotation Xrotation
		JOINT LeftUpLeg
		{
			OFFSET 1.800000 -1.400000 0.085000
			CHANNELS 3 Zrotation Yrotation Xrotation
			JOINT LeftLeg
			{
				OFFSET 2.215000 -6.000000 0.000000
				CHANNELS 3 Zrotation Yrotation Xrotation
				JOINT LeftFoot
				{
					OFFSET 2.500000 -6.900000 0.000000
					CHANNELS 3 Zrotation Yrotation Xrotation
					JOINT LeftToeBase
					{
						OFFSET 0.200000 -0.500000 1.950000
						CHANNELS 3 Zrotation Yrotation Xrotation
						End Site
						{
							OFFSET 0.000000 0.000000 0.000000
						}
					}
				}
			}
		}
	}
	JOINT RHipJoint
	{
		OFFSET 0.000000 0.000000 0.000000
		CHANNELS 3 Zrotation Yrotation Xrotation
		JOINT RightUpLeg
		{
			OFFSET -1.800000 -1.400000 0.085000
			CHANNELS 3 Zrotation Yrotation Xrotation
			JOINT RightLeg
			{
				OFFSET -2.215000 -6.000000 0.000000
				CHANNELS 3 Zrotation Yrotation Xrotation
				JOINT RightFoot
				{
					OFFSET -2.500000 -6.900000 0.000000
					CHANNELS 3 Zrotation Yrotation Xrotation
					JOINT RightToeBase
					{
						OFFSET -0.200000 -0.500000 1.950000
						CHANNELS 3 Zrotation Yrotation Xrotation
						End Site
						{
							OFFSET 0.000000 0.000000 0.000000
						}
					}
				}
			}
		}
	}
	JOINT LowerBack
	{
		OFFSET 0.000000 0.000000 0.000000
		CHANNELS 3 Zrotation Yrotation Xrotation
		JOINT Spine
		{
			OFFSET -0.087000 1.940000 -0.288900
			CHANNELS 3 Zrotation Yrotation Xrotation
			JOINT Spine1
			{
				OFFSET 0.000000 1.950000 0.060000
				CHANNELS 3 Zrotation Yrotation Xrotation
				JOINT Neck
				{
					OFFSET 0.000000 0.000000 0.000000
					CHANNELS 3 Zrotation Yrotation Xrotation
					JOINT Neck1
					{
						OFFSET 0.000000 1.600000 0.340000
						CHANNELS 3 Zrotation Yrotation Xrotation
						JOINT Head
						{
							OFFSET 0.000000 1.667000 -0.240000
							CHANNELS 3 Zrotation Yrotation Xrotation
							End Site
							{
								OFFSET 0.000000 0.000000 0.000000
							}
						}
					}
				}
				JOINT LeftShoulder
				{
					OFFSET 0.000000 0.000000 0.000000
					CHANNELS 3 Zrotation Yrotation Xrotation
					JOINT LeftArm
					{
						OFFSET 2.700000 1.550000 -0.730000
						CHANNELS 3 Zrotation Yrotation Xrotation
						JOINT LeftForeArm
						{
							OFFSET 5.450000 0.000000 0.000000
							CHANNELS 3 Zrotation Yrotation Xrotation
							JOINT LeftHand
							{
								OFFSET 3.450000 0.000000 0.000000
								CHANNELS 3 Zrotation Yrotation Xrotation
								JOINT LeftHandIndex1
								{
									OFFSET 0.750000 0.000000 0.000000
									CHANNELS 3 Zrotation Yrotation Xrotation
									End Site
									{
										OFFSET 0.000000 0.000000 0.000000
									}
								}
							}
						}
					}
				}
				JOINT RightShoulder
				{
					OFFSET 0.000000 0.000000 0.000000
					CHANNELS 3 Zrotation Yrotation Xrotation
					JOINT RightArm
					{
						OFFSET -2.700000 1.550000 -0.730000
						CHANNELS 3 Zrotation Yrotation Xrotation
						JOINT RightForeArm
						{
							OFFSET -5.450000 0.000000 0.000000
							CHANNELS 3 Zrotation Yrotation Xrotation
							JOINT RightHand
							{
								OFFSET -3.450000 0.000000 0.000000
								CHANNELS 3 Zrotation Yrotation Xrotation
								JOINT RightHandIndex1
								{
									OFFSET -0.750000 0.000000 0.000000
									CHANNELS 3 Zrotation Yrotation Xrotation
									End Site
									{
										OFFSET 0.000000 0.000000 0.000000
									}
								}
							}
						}
					}
				}
			}
		}
	}
}
MOTION
Frames: 12
Frame Time: 0.016667
0.341010 17.685670 -2.660680 -4.540817 -3.624497 0.812929 -15.251532 13.593557 2.631704 1.857803 0.491568 -1.470427 -4.768930 6.334321 16.356860 -0.560781 5.001604 3.052364 0.671970 0.202840 0.456180 18.296731 -9.788635 4.000673 7.214048 8.124537 -34.606307 -1.733107 -3.018745 27.259770 -0.217544 -2.817438 3.555864 0.168010 0.323950 0.293920 -3.440029 -2.868708 -7.817669 6.382726 -6.255135 18.606461 -6.075343 -5.096460 3.255440 2.714627 -2.074546 -2.573461 -5.841805 5.482074 39.313063 0.370300 2.626520 -12.415280 -20.761206 11.984041 -3.530593 -45.098664 11.628059 -12.353932 -39.821063 -23.415903 3.438546 -3.639554 3.040956 0.803010 0.142090 -0.003940 0.349340 16.122492 -12.649962 -0.405923 47.529824 -15.316850 -14.832242 68.807598 28.893635 11.352303 1.712506 -1.795580 -0.277570 0.319130 -0.096790 -0.291260 
0.330510 17.652950 -2.612750 -3.920162 -5.137672 1.806668 -15.275397 13.535288 2.651938 1.088368 0.511081 -1.715032 -5.129680 6.360762 16.232729 -0.563232 5.018291 3.051769 0.670760 0.205530 0.429680 18.291532 -9.848916 3.838041 7.182921 7.362486 -33.627976 -0.889070 -2.994298 23.739593 -0.123984 -2.491295 3.680990 0.186600 0.366250 0.319340 -3.390646 -2.763282 -7.630029 5.784618 -5.950753 16.034518 -6.174079 -4.999675 4.263627 2.697382 -1.835224 -2.170873 -5.200570 5.471550 38.040050 -0.148770 2.864010 -10.858430 -20.070749 12.803025 -3.635271 -45.188459 11.482092 -12.086927 -40.364626 -23.677159 3.741854 -3.690756 3.098478 0.747550 0.198980 -0.045770 0.364500 15.535126 -13.673808 -0.594166 48.428315 -15.549934 -14.713306 68.393093 28.483162 11.078167 1.681212 -1.846719 -0.272710 0.297410 -0.090040 -0.279240 
0.323080 17.628350 -2.584320 -3.401725 -6.884695 2.540710 -15.290823 13.468709 2.663520 0.406250 0.517101 -2.037703 -5.523055 6.461462 16.432585 -0.532879 5.030233 3.050815 0.672140 0.215440 0.421520 18.291759 -9.877460 3.761958 7.286223 6.989898 -33.096215 -0.342202 -2.942895 21.517280 -0.071049 -2.311561 3.752263 0.193180 0.383340 0.335850 -3.356806 -2.645419 -7.516519 5.291989 -5.527896 14.493918 -6.335407 -4.715011 4.619822 2.791842 -1.552099 -1.883817 -4.523240 5.261497 37.130638 -0.746370 3.100360 -9.661270 -19.687912 13.459102 -3.813018 -44.833498 11.056778 -11.589503 -40.889509 -23.983161 4.170001 -3.715100 3.154815 0.693610 0.234480 -0.068520 0.374620 14.988755 -14.523585 -0.650927 49.518630 -15.746339 -14.649965 67.724321 28.786737 11.206882 1.680353 -1.889694 -0.254040 0.269420 -0.100020 -0.265260 
0.317180 17.622100 -2.573640 -3.170871 -8.475292 2.785180 -15.291477 13.460581 2.686339 0.079837 0.535285 -2.128337 -5.654224 6.522336 16.636031 -0.499204 5.037024 3.057422 0.657050 0.204390 0.413540 18.287132 -9.910696 3.734920 7.654852 6.735475 -32.338393 -0.116622 -2.879571 19.877379 -0.047382 -2.177531 3.817525 0.175100 0.390050 0.342800 -3.330310 -2.596754 -7.514941 5.055052 -5.182625 14.381973 -6.456196 -4.431051 4.275329 2.983779 -1.273273 -1.845727 -4.005976 4.982177 37.179833 -1.302040 3.335340 -9.180650 -19.842888 13.602314 -3.976606 -44.147749 10.533672 -11.099778 -41.050924 -24.552802 4.618981 -3.718045 3.167099 0.678570 0.247060 -0.067090 0.380980 14.760742 -14.878777 -0.524403 50.575406 -15.960095 -14.818431 66.929793 29.648675 11.587250 1.693188 -1.885248 -0.245130 0.260340 -0.106090 -0.256650 
0.313810 17.627970 -2.573760 -3.089410 -9.834835 2.939774 -15.282613 13.474460 2.699809 -0.135105 0.516660 -2.291593 -5.432078 6.484606 16.924082 -0.469069 5.006213 3.076209 0.660710 0.209230 0.422880 18.284909 -9.950066 3.723276 7.919997 6.493963 -31.594819 0.335892 -2.873774 18.272719 -0.037891 -2.056348 3.878511 0.162480 0.383620 0.348470 -3.320936 -2.565159 -7.535472 4.967764 -4.977406 14.656985 -6.598381 -4.262413 3.786881 3.145361 -1.055418 -1.822327 -3.606732 4.814790 37.402982 -1.680040 3.615570 -9.030870 -20.335202 13.502443 -4.107815 -43.380248 10.004461 -10.688452 -41.011907 -25.452452 5.121635 -3.703078 3.182556 0.672350 0.246130 -0.052770 0.394780 14.927218 -14.974232 -0.469339 51.378585 -15.877123 -14.914188 65.796479 30.553280 11.887255 1.714537 -1.877908 -0.230770 0.252320 -0.127010 -0.249700 
0.309400 17.647580 -2.588110 -3.054327 -11.295638 2.875096 -15.266813 13.503311 2.718177 -0.170285 0.474729 -2.419398 -5.292368 6.495914 17.357248 -0.444163 4.982307 3.073246 0.684690 0.234280 0.447350 18.283261 -9.988840 3.729956 8.250001 6.293592 -30.771234 0.698281 -2.846152 16.813134 -0.048644 -1.939960 3.921052 0.157160 0.343960 0.350650 -3.316803 -2.555386 -7.594794 4.792977 -4.845642 15.513278 -6.825077 -4.146651 3.169017 3.213653 -0.990386 -1.897644 -3.510805 4.925684 38.037701 -1.469780 3.888540 -9.728620 -20.809190 13.240538 -4.172634 -42.656194 9.407672 -10.348748 -40.803135 -26.284565 5.524320 -3.657121 3.203120 0.692700 0.213220 -0.018130 0.399260 15.239703 -14.771700 -0.457754 52.228883 -15.412702 -14.995713 64.218813 31.295935 11.983081 1.748110 -1.858285 -0.209060 0.234550 -0.152630 -0.251310 
0.307610 17.667730 -2.605910 -3.252883 -12.635727 2.920574 -15.249822 13.530408 2.707833 -0.024577 0.419023 -2.609693 -4.895513 6.416113 17.701669 -0.450813 4.946341 3.072789 0.702170 0.250290 0.475290 18.288011 -10.011364 3.751535 8.629245 6.190721 -30.070096 1.061685 -2.825615 15.434155 -0.058205 -1.846862 3.947204 0.155720 0.311390 0.357390 -3.327961 -2.548869 -7.632402 4.901612 -4.754949 16.164490 -6.979689 -4.026870 2.896295 3.317718 -0.863847 -1.975566 -3.289449 4.937370 38.389947 -1.683070 4.226100 -10.597590 -21.403719 12.674650 -4.206222 -42.026906 8.698725 -10.045757 -40.314994 -26.893910 5.726528 -3.633969 3.208621 0.715090 0.191400 0.009950 0.392160 15.602488 -14.346167 -0.411535 52.739949 -14.833486 -15.051112 63.056759 32.253258 12.226501 1.768311 -1.842464 -0.197430 0.221820 -0.165120 -0.260720 
0.305510 17.681530 -2.622570 -3.348263 -13.807973 3.243881 -15.252037 13.544368 2.670559 0.029156 0.339622 -3.106950 -4.302949 6.290478 18.218267 -0.474431 4.904433 3.077583 0.707960 0.262450 0.482910 18.283499 -10.017179 3.765923 8.721306 6.141738 -29.752298 1.618472 -2.822095 14.115671 -0.051383 -1.779080 3.969328 0.165660 0.302520 0.357490 -3.305425 -2.539073 -7.613451 4.700984 -4.499639 16.014713 -6.775447 -3.785218 3.104281 3.348017 -0.582428 -2.045926 -2.759174 4.847298 38.401579 -1.937850 4.503380 -10.872120 -21.584660 12.020776 -4.127638 -41.719980 7.647238 -9.575891 -39.798889 -27.171077 5.833274 -3.641133 3.209030 0.715360 0.192150 0.015200 0.388870 15.758626 -13.818902 -0.454173 53.077318 -13.616774 -14.773664 61.062136 33.120865 12.238825 1.778158 -1.831187 -0.197600 0.220440 -0.167440 -0.266080 
0.311690 17.694120 -2.645490 -3.549103 -14.674531 3.578012 -15.245103 13.561573 2.623018 0.250364 0.231034 -3.668607 -3.644637 6.119755 18.622213 -0.506758 4.847235 3.091573 0.716790 0.279220 0.491230 18.286606 -10.021925 3.783270 8.583943 6.146409 -29.659855 2.446789 -2.891517 13.186339 -0.048422 -1.746824 3.983383 0.179380 0.300260 0.351910 -3.312462 -2.531659 -7.589317 4.786332 -4.373689 15.858817 -6.620159 -3.632074 3.569619 3.329766 -0.336914 -2.232765 -2.321409 4.794911 38.322865 -2.046190 4.714380 -11.206730 -21.798675 10.908756 -3.935594 -41.382540 6.382025 -9.119340 -39.199236 -27.472687 5.887513 -3.651636 3.200892 0.714940 0.194970 0.016580 0.388430 16.014761 -12.859816 -0.374066 53.191510 -12.429302 -14.633450 59.027715 34.235160 12.220129 1.781062 -1.818160 -0.201230 0.229740 -0.170460 -0.270500 
0.315640 17.703370 -2.675560 -3.555445 -15.479782 3.741502 -15.259005 13.611737 2.591169 0.395393 0.101154 -4.281105 -2.998971 5.988309 19.278805 -0.526976 4.814445 3.095988 0.733600 0.305630 0.517350 18.265763 -10.012102 3.786589 8.257808 6.090323 -29.575288 3.234886 -2.946020 12.417557 -0.054178 -1.710114 3.989400 0.196540 0.288250 0.342200 -3.249851 -2.619576 -7.575958 4.321280 -4.211379 15.983999 -6.151996 -3.472228 3.964811 3.199026 -0.163566 -2.422375 -2.093486 4.813159 38.311248 -1.938260 4.887360 -11.988980 -21.882801 9.830351 -3.763157 -40.950654 4.917801 -8.569684 -38.677625 -27.684498 5.948692 -3.654195 3.182469 0.719900 0.185250 0.030060 0.383100 16.401294 -11.791645 -0.328097 52.863505 -11.195915 -14.367437 57.113979 35.207622 12.150308 1.793937 -1.798679 -0.202360 0.245160 -0.181670 -0.275030 
0.317590 17.708130 -2.709230 -3.597316 -16.387505 3.946855 -15.282196 13.666265 2.561641 0.637743 -0.054029 -4.998469 -2.537222 5.921758 20.004147 -0.548099 4.818572 3.085598 0.736320 0.308100 0.528900 18.237065 -9.985887 3.796343 8.037021 6.110481 -29.629263 3.666352 -2.962996 12.023839 -0.053327 -1.698399 3.982072 0.204570 0.280340 0.342420 -3.158986 -2.737315 -7.569012 3.753556 -3.956880 15.966879 -5.509495 -3.228662 4.335993 3.122861 0.063649 -2.703436 -1.825422 4.687645 38.507548 -2.363400 5.099120 -11.916030 -22.026674 8.548737 -3.538535 -40.291892 3.421240 -7.906108 -38.321577 -27.804195 6.033267 -3.665154 3.186747 0.719470 0.186760 0.031350 0.377680 16.743755 -10.521073 -0.143775 52.379743 -9.994375 -14.032308 55.330479 36.129516 12.060921 1.799520 -1.798575 -0.206840 0.241930 -0.182670 -0.283350 
0.319830 17.704840 -2.742950 -3.783714 -17.294783 4.138248 -15.297957 13.707023 2.528012 1.122838 -0.200843 -5.603963 -2.336512 5.933491 20.559190 -0.569516 4.845588 3.080290 0.750000 0.313390 0.552690 18.217188 -9.959920 3.816685 7.920440 6.264421 -29.820899 3.915370 -3.007259 12.400084 -0.054153 -1.723372 3.975791 0.218980 0.278030 0.332690 -3.092352 -2.820611 -7.563430 3.400733 -3.663304 15.912156 -4.809437 -2.929052 4.797262 3.014194 0.294830 -3.045218 -1.521970 4.543073 38.623398 -2.707910 5.291530 -11.655910 -22.285655 7.044887 -3.195591 -39.510415 2.085889 -7.328741 -38.398172 -28.603226 6.424948 -3.666888 3.187043 0.723000 0.191330 0.026060 0.383230 17.240108 -9.003464 0.119985 51.578422 -8.769833 -13.648382 53.702492 37.507408 12.189058 1.797565 -1.807013 -0.222240 0.248920 -0.198710 -0.296420 
